<svg class="main-svg" xmlns="http://www.w3.org/2000/svg" xmlns:xlink="http://www.w3.org/1999/xlink" width="700" height="500" style="" viewBox="0 0 700 500"><rect x="0" y="0" width="700" height="500" style="fill: rgb(255, 255, 255); fill-opacity: 1;"/><defs id="defs-758c77"><g class="clips"><clipPath id="clip758c77xyplot" class="plotclip"><rect width="489" height="271"/></clipPath><clipPath class="axesclip" id="clip758c77x"><rect x="131" y="0" width="489" height="500"/></clipPath><clipPath class="axesclip" id="clip758c77y"><rect x="0" y="126" width="700" height="271"/></clipPath><clipPath class="axesclip" id="clip758c77xy"><rect x="131" y="126" width="489" height="271"/></clipPath></g><g class="gradients"/><g class="patterns"/></defs><g class="bglayer"><rect class="bg" x="131" y="126" width="489" height="271" style="fill: rgb(0, 0, 0); fill-opacity: 0; stroke-width: 0;"/></g><g class="layer-below"><g class="imagelayer"/><g class="shapelayer"/></g><g class="cartesianlayer"><g class="subplot xy"><g class="layer-subplot"><g class="shapelayer"/><g class="imagelayer"/></g><g class="minor-gridlayer"><g class="x"/><g class="y"/></g><g class="gridlayer"><g class="x"><path class="xgrid crisp" transform="translate(164.82999999999998,0)" d="M0,126v271" style="stroke: rgb(235, 240, 248); stroke-opacity: 1; stroke-width: 1px;"/><path class="xgrid crisp" transform="translate(203.13,0)" d="M0,126v271" style="stroke: rgb(235, 240, 248); stroke-opacity: 1; stroke-width: 1px;"/><path class="xgrid crisp" transform="translate(241.43,0)" d="M0,126v271" style="stroke: rgb(235, 240, 248); stroke-opacity: 1; stroke-width: 1px;"/><path class="xgrid crisp" transform="translate(279.74,0)" d="M0,126v271" style="stroke: rgb(235, 240, 248); stroke-opacity: 1; stroke-width: 1px;"/><path class="xgrid crisp" transform="translate(318.03999999999996,0)" d="M0,126v271" style="stroke: rgb(235, 240, 248); stroke-opacity: 1; stroke-width: 1px;"/><path class="xgrid crisp" transform="translate(356.35,0)" d="M0,126v271" style="stroke: rgb(235, 240, 248); stroke-opacity: 1; stroke-width: 1px;"/><path class="xgrid crisp" transform="translate(394.65,0)" d="M0,126v271" style="stroke: rgb(235, 240, 248); stroke-opacity: 1; stroke-width: 1px;"/><path class="xgrid crisp" transform="translate(432.96,0)" d="M0,126v271" style="stroke: rgb(235, 240, 248); stroke-opacity: 1; stroke-width: 1px;"/><path class="xgrid crisp" transform="translate(471.26,0)" d="M0,126v271" style="stroke: rgb(235, 240, 248); stroke-opacity: 1; stroke-width: 1px;"/><path class="xgrid crisp" transform="translate(509.57,0)" d="M0,126v271" style="stroke: rgb(235, 240, 248); stroke-opacity: 1; stroke-width: 1px;"/><path class="xgrid crisp" transform="translate(547.87,0)" d="M0,126v271" style="stroke: rgb(235, 240, 248); stroke-opacity: 1; stroke-width: 1px;"/><path class="xgrid crisp" transform="translate(586.1800000000001,0)" d="M0,126v271" style="stroke: rgb(235, 240, 248); stroke-opacity: 1; stroke-width: 1px;"/></g><g class="y"><path class="ygrid crisp" transform="translate(0,374.07)" d="M131,0h489" style="stroke: rgb(235, 240, 248); stroke-opacity: 1; stroke-width: 1px;"/><path class="ygrid crisp" transform="translate(0,355.31)" d="M131,0h489" style="stroke: rgb(235, 240, 248); stroke-opacity: 1; stroke-width: 1px;"/><path class="ygrid crisp" transform="translate(0,336.55)" d="M131,0h489" style="stroke: rgb(235, 240, 248); stroke-opacity: 1; stroke-width: 1px;"/><path class="ygrid crisp" transform="translate(0,317.78999999999996)" d="M131,0h489" style="stroke: rgb(235, 240, 248); stroke-opacity: 1; stroke-width: 1px;"/><path class="ygrid crisp" transform="translate(0,299.02)" d="M131,0h489" style="stroke: rgb(235, 240, 248); stroke-opacity: 1; stroke-width: 1px;"/><path class="ygrid crisp" transform="translate(0,280.26)" d="M131,0h489" style="stroke: rgb(235, 240, 248); stroke-opacity: 1; stroke-width: 1px;"/><path class="ygrid crisp" transform="translate(0,261.5)" d="M131,0h489" style="stroke: rgb(235, 240, 248); stroke-opacity: 1; stroke-width: 1px;"/><path class="ygrid crisp" transform="translate(0,242.74)" d="M131,0h489" style="stroke: rgb(235, 240, 248); stroke-opacity: 1; stroke-width: 1px;"/><path class="ygrid crisp" transform="translate(0,223.98000000000002)" d="M131,0h489" style="stroke: rgb(235, 240, 248); stroke-opacity: 1; stroke-width: 1px;"/><path class="ygrid crisp" transform="translate(0,205.20999999999998)" d="M131,0h489" style="stroke: rgb(235, 240, 248); stroke-opacity: 1; stroke-width: 1px;"/><path class="ygrid crisp" transform="translate(0,186.45)" d="M131,0h489" style="stroke: rgb(235, 240, 248); stroke-opacity: 1; stroke-width: 1px;"/><path class="ygrid crisp" transform="translate(0,167.69)" d="M131,0h489" style="stroke: rgb(235, 240, 248); stroke-opacity: 1; stroke-width: 1px;"/><path class="ygrid crisp" transform="translate(0,148.93)" d="M131,0h489" style="stroke: rgb(235, 240, 248); stroke-opacity: 1; stroke-width: 1px;"/></g></g><g class="zerolinelayer"/><path class="xlines-below"/><path class="ylines-below"/><g class="overlines-below"/><g class="xaxislayer-below"/><g class="yaxislayer-below"/><g class="overaxes-below"/><g class="plot" transform="translate(131,126)" clip-path="url(#clip758c77xyplot)"><g class="scatterlayer mlayer"><g class="trace scatter trace6d2b55" style="stroke-miterlimit: 2; opacity: 1;"><g class="fills"/><g class="errorbars"/><g class="lines"/><g class="points"><path class="point" transform="translate(378.57,210.55)" d="M7.5,0A7.5,7.5 0 1,1 0,-7.5A7.5,7.5 0 0,1 7.5,0ZM0,0.5L0.5,0L0,-0.5L-0.5,0Z" style="opacity: 1; stroke-width: 2px; fill: rgb(136, 196, 8); fill-opacity: 1; stroke: rgb(20, 75, 57); stroke-opacity: 1;"/><path class="point" transform="translate(340.26,229.31)" d="M7.5,0A7.5,7.5 0 1,1 0,-7.5A7.5,7.5 0 0,1 7.5,0ZM0,0.5L0.5,0L0,-0.5L-0.5,0Z" style="opacity: 1; stroke-width: 2px; fill: rgb(136, 196, 8); fill-opacity: 1; stroke: rgb(20, 75, 57); stroke-opacity: 1;"/><path class="point" transform="translate(148.74,229.31)" d="M7.5,0A7.5,7.5 0 1,1 0,-7.5A7.5,7.5 0 0,1 7.5,0ZM0,0.5L0.5,0L0,-0.5L-0.5,0Z" style="opacity: 1; stroke-width: 2px; fill: rgb(136, 196, 8); fill-opacity: 1; stroke: rgb(20, 75, 57); stroke-opacity: 1;"/><path class="point" transform="translate(110.43,79.21)" d="M7.5,0A7.5,7.5 0 1,1 0,-7.5A7.5,7.5 0 0,1 7.5,0ZM0,0.5L0.5,0L0,-0.5L-0.5,0Z" style="opacity: 1; stroke-width: 2px; fill: rgb(136, 196, 8); fill-opacity: 1; stroke: rgb(20, 75, 57); stroke-opacity: 1;"/></g><g class="text"/></g><g class="trace scatter trace92a109" style="stroke-miterlimit: 2; opacity: 1;"><g class="fills"/><g class="errorbars"/><g class="lines"/><g class="points"><path class="point" transform="translate(416.87,210.55)" d="M7.5,0A7.5,7.5 0 1,1 0,-7.5A7.5,7.5 0 0,1 7.5,0ZM0,0.5L0.5,0L0,-0.5L-0.5,0Z" style="opacity: 1; stroke-width: 2px; fill: rgb(166, 147, 99); fill-opacity: 1; stroke: rgb(20, 75, 57); stroke-opacity: 1;"/><path class="point" transform="translate(455.18,229.31)" d="M7.5,0A7.5,7.5 0 1,1 0,-7.5A7.5,7.5 0 0,1 7.5,0ZM0,0.5L0.5,0L0,-0.5L-0.5,0Z" style="opacity: 1; stroke-width: 2px; fill: rgb(166, 147, 99); fill-opacity: 1; stroke: rgb(20, 75, 57); stroke-opacity: 1;"/><path class="point" transform="translate(187.04,116.74)" d="M7.5,0A7.5,7.5 0 1,1 0,-7.5A7.5,7.5 0 0,1 7.5,0ZM0,0.5L0.5,0L0,-0.5L-0.5,0Z" style="opacity: 1; stroke-width: 2px; fill: rgb(166, 147, 99); fill-opacity: 1; stroke: rgb(20, 75, 57); stroke-opacity: 1;"/></g><g class="text"/></g><g class="trace scatter traced276ea" style="stroke-miterlimit: 2; opacity: 1;"><g class="fills"/><g class="errorbars"/><g class="lines"/><g class="points"><path class="point" transform="translate(416.87,79.21)" d="M7.5,0A7.5,7.5 0 1,1 0,-7.5A7.5,7.5 0 0,1 7.5,0ZM0,0.5L0.5,0L0,-0.5L-0.5,0Z" style="opacity: 1; stroke-width: 2px; fill: rgb(255, 214, 2); fill-opacity: 1; stroke: rgb(20, 75, 57); stroke-opacity: 1;"/><path class="point" transform="translate(225.35,22.93)" d="M7.5,0A7.5,7.5 0 1,1 0,-7.5A7.5,7.5 0 0,1 7.5,0ZM0,0.5L0.5,0L0,-0.5L-0.5,0Z" style="opacity: 1; stroke-width: 2px; fill: rgb(255, 214, 2); fill-opacity: 1; stroke: rgb(20, 75, 57); stroke-opacity: 1;"/></g><g class="text"/></g><g class="trace scatter trace57a7fc" style="stroke-miterlimit: 2; opacity: 1;"><g class="fills"/><g class="errorbars"/><g class="lines"/><g class="points"><path class="point" transform="translate(263.65,154.26)" d="M0,10.5V-10.5M10.5,0H-10.5" style="opacity: 1; stroke-width: 2px; fill: rgb(128, 130, 133); fill-opacity: 1; stroke: rgb(20, 75, 57); stroke-opacity: 1;"/><path class="point" transform="translate(72.13,154.26)" d="M0,10.5V-10.5M10.5,0H-10.5" style="opacity: 1; stroke-width: 2px; fill: rgb(128, 130, 133); fill-opacity: 1; stroke: rgb(20, 75, 57); stroke-opacity: 1;"/><path class="point" transform="translate(110.43,154.26)" d="M0,10.5V-10.5M10.5,0H-10.5" style="opacity: 1; stroke-width: 2px; fill: rgb(128, 130, 133); fill-opacity: 1; stroke: rgb(20, 75, 57); stroke-opacity: 1;"/><path class="point" transform="translate(187.04,154.26)" d="M0,10.5V-10.5M10.5,0H-10.5" style="opacity: 1; stroke-width: 2px; fill: rgb(128, 130, 133); fill-opacity: 1; stroke: rgb(20, 75, 57); stroke-opacity: 1;"/><path class="point" transform="translate(301.96,154.26)" d="M0,10.5V-10.5M10.5,0H-10.5" style="opacity: 1; stroke-width: 2px; fill: rgb(128, 130, 133); fill-opacity: 1; stroke: rgb(20, 75, 57); stroke-opacity: 1;"/><path class="point" transform="translate(378.57,154.26)" d="M0,10.5V-10.5M10.5,0H-10.5" style="opacity: 1; stroke-width: 2px; fill: rgb(128, 130, 133); fill-opacity: 1; stroke: rgb(20, 75, 57); stroke-opacity: 1;"/><path class="point" transform="translate(225.35,154.26)" d="M0,10.5V-10.5M10.5,0H-10.5" style="opacity: 1; stroke-width: 2px; fill: rgb(128, 130, 133); fill-opacity: 1; stroke: rgb(20, 75, 57); stroke-opacity: 1;"/><path class="point" transform="translate(33.83,154.26)" d="M0,10.5V-10.5M10.5,0H-10.5" style="opacity: 1; stroke-width: 2px; fill: rgb(128, 130, 133); fill-opacity: 1; stroke: rgb(20, 75, 57); stroke-opacity: 1;"/><path class="point" transform="translate(148.74,154.26)" d="M0,10.5V-10.5M10.5,0H-10.5" style="opacity: 1; stroke-width: 2px; fill: rgb(128, 130, 133); fill-opacity: 1; stroke: rgb(20, 75, 57); stroke-opacity: 1;"/><path class="point" transform="translate(263.65,210.55)" d="M0,10.5V-10.5M10.5,0H-10.5" style="opacity: 1; stroke-width: 2px; fill: rgb(128, 130, 133); fill-opacity: 1; stroke: rgb(20, 75, 57); stroke-opacity: 1;"/><path class="point" transform="translate(72.13,210.55)" d="M0,10.5V-10.5M10.5,0H-10.5" style="opacity: 1; stroke-width: 2px; fill: rgb(128, 130, 133); fill-opacity: 1; stroke: rgb(20, 75, 57); stroke-opacity: 1;"/><path class="point" transform="translate(110.43,210.55)" d="M0,10.5V-10.5M10.5,0H-10.5" style="opacity: 1; stroke-width: 2px; fill: rgb(128, 130, 133); fill-opacity: 1; stroke: rgb(20, 75, 57); stroke-opacity: 1;"/><path class="point" transform="translate(187.04,210.55)" d="M0,10.5V-10.5M10.5,0H-10.5" style="opacity: 1; stroke-width: 2px; fill: rgb(128, 130, 133); fill-opacity: 1; stroke: rgb(20, 75, 57); stroke-opacity: 1;"/><path class="point" transform="translate(301.96,210.55)" d="M0,10.5V-10.5M10.5,0H-10.5" style="opacity: 1; stroke-width: 2px; fill: rgb(128, 130, 133); fill-opacity: 1; stroke: rgb(20, 75, 57); stroke-opacity: 1;"/><path class="point" transform="translate(225.35,210.55)" d="M0,10.5V-10.5M10.5,0H-10.5" style="opacity: 1; stroke-width: 2px; fill: rgb(128, 130, 133); fill-opacity: 1; stroke: rgb(20, 75, 57); stroke-opacity: 1;"/><path class="point" transform="translate(33.83,210.55)" d="M0,10.5V-10.5M10.5,0H-10.5" style="opacity: 1; stroke-width: 2px; fill: rgb(128, 130, 133); fill-opacity: 1; stroke: rgb(20, 75, 57); stroke-opacity: 1;"/><path class="point" transform="translate(148.74,210.55)" d="M0,10.5V-10.5M10.5,0H-10.5" style="opacity: 1; stroke-width: 2px; fill: rgb(128, 130, 133); fill-opacity: 1; stroke: rgb(20, 75, 57); stroke-opacity: 1;"/><path class="point" transform="translate(263.65,229.31)" d="M0,10.5V-10.5M10.5,0H-10.5" style="opacity: 1; stroke-width: 2px; fill: rgb(128, 130, 133); fill-opacity: 1; stroke: rgb(20, 75, 57); stroke-opacity: 1;"/><path class="point" transform="translate(72.13,229.31)" d="M0,10.5V-10.5M10.5,0H-10.5" style="opacity: 1; stroke-width: 2px; fill: rgb(128, 130, 133); fill-opacity: 1; stroke: rgb(20, 75, 57); stroke-opacity: 1;"/><path class="point" transform="translate(110.43,229.31)" d="M0,10.5V-10.5M10.5,0H-10.5" style="opacity: 1; stroke-width: 2px; fill: rgb(128, 130, 133); fill-opacity: 1; stroke: rgb(20, 75, 57); stroke-opacity: 1;"/><path class="point" transform="translate(187.04,229.31)" d="M0,10.5V-10.5M10.5,0H-10.5" style="opacity: 1; stroke-width: 2px; fill: rgb(128, 130, 133); fill-opacity: 1; stroke: rgb(20, 75, 57); stroke-opacity: 1;"/><path class="point" transform="translate(416.87,229.31)" d="M0,10.5V-10.5M10.5,0H-10.5" style="opacity: 1; stroke-width: 2px; fill: rgb(128, 130, 133); fill-opacity: 1; stroke: rgb(20, 75, 57); stroke-opacity: 1;"/><path class="point" transform="translate(301.96,229.31)" d="M0,10.5V-10.5M10.5,0H-10.5" style="opacity: 1; stroke-width: 2px; fill: rgb(128, 130, 133); fill-opacity: 1; stroke: rgb(20, 75, 57); stroke-opacity: 1;"/><path class="point" transform="translate(378.57,229.31)" d="M0,10.5V-10.5M10.5,0H-10.5" style="opacity: 1; stroke-width: 2px; fill: rgb(128, 130, 133); fill-opacity: 1; stroke: rgb(20, 75, 57); stroke-opacity: 1;"/><path class="point" transform="translate(225.35,229.31)" d="M0,10.5V-10.5M10.5,0H-10.5" style="opacity: 1; stroke-width: 2px; fill: rgb(128, 130, 133); fill-opacity: 1; stroke: rgb(20, 75, 57); stroke-opacity: 1;"/><path class="point" transform="translate(33.83,229.31)" d="M0,10.5V-10.5M10.5,0H-10.5" style="opacity: 1; stroke-width: 2px; fill: rgb(128, 130, 133); fill-opacity: 1; stroke: rgb(20, 75, 57); stroke-opacity: 1;"/><path class="point" transform="translate(263.65,248.07)" d="M0,10.5V-10.5M10.5,0H-10.5" style="opacity: 1; stroke-width: 2px; fill: rgb(128, 130, 133); fill-opacity: 1; stroke: rgb(20, 75, 57); stroke-opacity: 1;"/><path class="point" transform="translate(72.13,248.07)" d="M0,10.5V-10.5M10.5,0H-10.5" style="opacity: 1; stroke-width: 2px; fill: rgb(128, 130, 133); fill-opacity: 1; stroke: rgb(20, 75, 57); stroke-opacity: 1;"/><path class="point" transform="translate(110.43,248.07)" d="M0,10.5V-10.5M10.5,0H-10.5" style="opacity: 1; stroke-width: 2px; fill: rgb(128, 130, 133); fill-opacity: 1; stroke: rgb(20, 75, 57); stroke-opacity: 1;"/><path class="point" transform="translate(187.04,248.07)" d="M0,10.5V-10.5M10.5,0H-10.5" style="opacity: 1; stroke-width: 2px; fill: rgb(128, 130, 133); fill-opacity: 1; stroke: rgb(20, 75, 57); stroke-opacity: 1;"/><path class="point" transform="translate(416.87,248.07)" d="M0,10.5V-10.5M10.5,0H-10.5" style="opacity: 1; stroke-width: 2px; fill: rgb(128, 130, 133); fill-opacity: 1; stroke: rgb(20, 75, 57); stroke-opacity: 1;"/><path class="point" transform="translate(340.26,248.07)" d="M0,10.5V-10.5M10.5,0H-10.5" style="opacity: 1; stroke-width: 2px; fill: rgb(128, 130, 133); fill-opacity: 1; stroke: rgb(20, 75, 57); stroke-opacity: 1;"/><path class="point" transform="translate(301.96,248.07)" d="M0,10.5V-10.5M10.5,0H-10.5" style="opacity: 1; stroke-width: 2px; fill: rgb(128, 130, 133); fill-opacity: 1; stroke: rgb(20, 75, 57); stroke-opacity: 1;"/><path class="point" transform="translate(378.57,248.07)" d="M0,10.5V-10.5M10.5,0H-10.5" style="opacity: 1; stroke-width: 2px; fill: rgb(128, 130, 133); fill-opacity: 1; stroke: rgb(20, 75, 57); stroke-opacity: 1;"/><path class="point" transform="translate(225.35,248.07)" d="M0,10.5V-10.5M10.5,0H-10.5" style="opacity: 1; stroke-width: 2px; fill: rgb(128, 130, 133); fill-opacity: 1; stroke: rgb(20, 75, 57); stroke-opacity: 1;"/><path class="point" transform="translate(455.18,248.07)" d="M0,10.5V-10.5M10.5,0H-10.5" style="opacity: 1; stroke-width: 2px; fill: rgb(128, 130, 133); fill-opacity: 1; stroke: rgb(20, 75, 57); stroke-opacity: 1;"/><path class="point" transform="translate(33.83,248.07)" d="M0,10.5V-10.5M10.5,0H-10.5" style="opacity: 1; stroke-width: 2px; fill: rgb(128, 130, 133); fill-opacity: 1; stroke: rgb(20, 75, 57); stroke-opacity: 1;"/><path class="point" transform="translate(148.74,248.07)" d="M0,10.5V-10.5M10.5,0H-10.5" style="opacity: 1; stroke-width: 2px; fill: rgb(128, 130, 133); fill-opacity: 1; stroke: rgb(20, 75, 57); stroke-opacity: 1;"/><path class="point" transform="translate(263.65,173.02)" d="M0,10.5V-10.5M10.5,0H-10.5" style="opacity: 1; stroke-width: 2px; fill: rgb(128, 130, 133); fill-opacity: 1; stroke: rgb(20, 75, 57); stroke-opacity: 1;"/><path class="point" transform="translate(72.13,173.02)" d="M0,10.5V-10.5M10.5,0H-10.5" style="opacity: 1; stroke-width: 2px; fill: rgb(128, 130, 133); fill-opacity: 1; stroke: rgb(20, 75, 57); stroke-opacity: 1;"/><path class="point" transform="translate(110.43,173.02)" d="M0,10.5V-10.5M10.5,0H-10.5" style="opacity: 1; stroke-width: 2px; fill: rgb(128, 130, 133); fill-opacity: 1; stroke: rgb(20, 75, 57); stroke-opacity: 1;"/><path class="point" transform="translate(416.87,173.02)" d="M0,10.5V-10.5M10.5,0H-10.5" style="opacity: 1; stroke-width: 2px; fill: rgb(128, 130, 133); fill-opacity: 1; stroke: rgb(20, 75, 57); stroke-opacity: 1;"/><path class="point" transform="translate(340.26,173.02)" d="M0,10.5V-10.5M10.5,0H-10.5" style="opacity: 1; stroke-width: 2px; fill: rgb(128, 130, 133); fill-opacity: 1; stroke: rgb(20, 75, 57); stroke-opacity: 1;"/><path class="point" transform="translate(301.96,173.02)" d="M0,10.5V-10.5M10.5,0H-10.5" style="opacity: 1; stroke-width: 2px; fill: rgb(128, 130, 133); fill-opacity: 1; stroke: rgb(20, 75, 57); stroke-opacity: 1;"/><path class="point" transform="translate(378.57,173.02)" d="M0,10.5V-10.5M10.5,0H-10.5" style="opacity: 1; stroke-width: 2px; fill: rgb(128, 130, 133); fill-opacity: 1; stroke: rgb(20, 75, 57); stroke-opacity: 1;"/><path class="point" transform="translate(225.35,173.02)" d="M0,10.5V-10.5M10.5,0H-10.5" style="opacity: 1; stroke-width: 2px; fill: rgb(128, 130, 133); fill-opacity: 1; stroke: rgb(20, 75, 57); stroke-opacity: 1;"/><path class="point" transform="translate(33.83,173.02)" d="M0,10.5V-10.5M10.5,0H-10.5" style="opacity: 1; stroke-width: 2px; fill: rgb(128, 130, 133); fill-opacity: 1; stroke: rgb(20, 75, 57); stroke-opacity: 1;"/><path class="point" transform="translate(148.74,173.02)" d="M0,10.5V-10.5M10.5,0H-10.5" style="opacity: 1; stroke-width: 2px; fill: rgb(128, 130, 133); fill-opacity: 1; stroke: rgb(20, 75, 57); stroke-opacity: 1;"/><path class="point" transform="translate(263.65,79.21)" d="M0,10.5V-10.5M10.5,0H-10.5" style="opacity: 1; stroke-width: 2px; fill: rgb(128, 130, 133); fill-opacity: 1; stroke: rgb(20, 75, 57); stroke-opacity: 1;"/><path class="point" transform="translate(72.13,79.21)" d="M0,10.5V-10.5M10.5,0H-10.5" style="opacity: 1; stroke-width: 2px; fill: rgb(128, 130, 133); fill-opacity: 1; stroke: rgb(20, 75, 57); stroke-opacity: 1;"/><path class="point" transform="translate(187.04,79.21)" d="M0,10.5V-10.5M10.5,0H-10.5" style="opacity: 1; stroke-width: 2px; fill: rgb(128, 130, 133); fill-opacity: 1; stroke: rgb(20, 75, 57); stroke-opacity: 1;"/><path class="point" transform="translate(225.35,79.21)" d="M0,10.5V-10.5M10.5,0H-10.5" style="opacity: 1; stroke-width: 2px; fill: rgb(128, 130, 133); fill-opacity: 1; stroke: rgb(20, 75, 57); stroke-opacity: 1;"/><path class="point" transform="translate(33.83,79.21)" d="M0,10.5V-10.5M10.5,0H-10.5" style="opacity: 1; stroke-width: 2px; fill: rgb(128, 130, 133); fill-opacity: 1; stroke: rgb(20, 75, 57); stroke-opacity: 1;"/><path class="point" transform="translate(148.74,79.21)" d="M0,10.5V-10.5M10.5,0H-10.5" style="opacity: 1; stroke-width: 2px; fill: rgb(128, 130, 133); fill-opacity: 1; stroke: rgb(20, 75, 57); stroke-opacity: 1;"/><path class="point" transform="translate(263.65,191.79)" d="M0,10.5V-10.5M10.5,0H-10.5" style="opacity: 1; stroke-width: 2px; fill: rgb(128, 130, 133); fill-opacity: 1; stroke: rgb(20, 75, 57); stroke-opacity: 1;"/><path class="point" transform="translate(72.13,191.79)" d="M0,10.5V-10.5M10.5,0H-10.5" style="opacity: 1; stroke-width: 2px; fill: rgb(128, 130, 133); fill-opacity: 1; stroke: rgb(20, 75, 57); stroke-opacity: 1;"/><path class="point" transform="translate(110.43,191.79)" d="M0,10.5V-10.5M10.5,0H-10.5" style="opacity: 1; stroke-width: 2px; fill: rgb(128, 130, 133); fill-opacity: 1; stroke: rgb(20, 75, 57); stroke-opacity: 1;"/><path class="point" transform="translate(187.04,191.79)" d="M0,10.5V-10.5M10.5,0H-10.5" style="opacity: 1; stroke-width: 2px; fill: rgb(128, 130, 133); fill-opacity: 1; stroke: rgb(20, 75, 57); stroke-opacity: 1;"/><path class="point" transform="translate(416.87,191.79)" d="M0,10.5V-10.5M10.5,0H-10.5" style="opacity: 1; stroke-width: 2px; fill: rgb(128, 130, 133); fill-opacity: 1; stroke: rgb(20, 75, 57); stroke-opacity: 1;"/><path class="point" transform="translate(340.26,191.79)" d="M0,10.5V-10.5M10.5,0H-10.5" style="opacity: 1; stroke-width: 2px; fill: rgb(128, 130, 133); fill-opacity: 1; stroke: rgb(20, 75, 57); stroke-opacity: 1;"/><path class="point" transform="translate(301.96,191.79)" d="M0,10.5V-10.5M10.5,0H-10.5" style="opacity: 1; stroke-width: 2px; fill: rgb(128, 130, 133); fill-opacity: 1; stroke: rgb(20, 75, 57); stroke-opacity: 1;"/><path class="point" transform="translate(378.57,191.79)" d="M0,10.5V-10.5M10.5,0H-10.5" style="opacity: 1; stroke-width: 2px; fill: rgb(128, 130, 133); fill-opacity: 1; stroke: rgb(20, 75, 57); stroke-opacity: 1;"/><path class="point" transform="translate(225.35,191.79)" d="M0,10.5V-10.5M10.5,0H-10.5" style="opacity: 1; stroke-width: 2px; fill: rgb(128, 130, 133); fill-opacity: 1; stroke: rgb(20, 75, 57); stroke-opacity: 1;"/><path class="point" transform="translate(455.18,191.79)" d="M0,10.5V-10.5M10.5,0H-10.5" style="opacity: 1; stroke-width: 2px; fill: rgb(128, 130, 133); fill-opacity: 1; stroke: rgb(20, 75, 57); stroke-opacity: 1;"/><path class="point" transform="translate(33.83,191.79)" d="M0,10.5V-10.5M10.5,0H-10.5" style="opacity: 1; stroke-width: 2px; fill: rgb(128, 130, 133); fill-opacity: 1; stroke: rgb(20, 75, 57); stroke-opacity: 1;"/><path class="point" transform="translate(148.74,191.79)" d="M0,10.5V-10.5M10.5,0H-10.5" style="opacity: 1; stroke-width: 2px; fill: rgb(128, 130, 133); fill-opacity: 1; stroke: rgb(20, 75, 57); stroke-opacity: 1;"/><path class="point" transform="translate(263.65,41.69)" d="M0,10.5V-10.5M10.5,0H-10.5" style="opacity: 1; stroke-width: 2px; fill: rgb(128, 130, 133); fill-opacity: 1; stroke: rgb(20, 75, 57); stroke-opacity: 1;"/><path class="point" transform="translate(72.13,41.69)" d="M0,10.5V-10.5M10.5,0H-10.5" style="opacity: 1; stroke-width: 2px; fill: rgb(128, 130, 133); fill-opacity: 1; stroke: rgb(20, 75, 57); stroke-opacity: 1;"/><path class="point" transform="translate(110.43,41.69)" d="M0,10.5V-10.5M10.5,0H-10.5" style="opacity: 1; stroke-width: 2px; fill: rgb(128, 130, 133); fill-opacity: 1; stroke: rgb(20, 75, 57); stroke-opacity: 1;"/><path class="point" transform="translate(225.35,41.69)" d="M0,10.5V-10.5M10.5,0H-10.5" style="opacity: 1; stroke-width: 2px; fill: rgb(128, 130, 133); fill-opacity: 1; stroke: rgb(20, 75, 57); stroke-opacity: 1;"/><path class="point" transform="translate(148.74,41.69)" d="M0,10.5V-10.5M10.5,0H-10.5" style="opacity: 1; stroke-width: 2px; fill: rgb(128, 130, 133); fill-opacity: 1; stroke: rgb(20, 75, 57); stroke-opacity: 1;"/><path class="point" transform="translate(263.65,135.5)" d="M0,10.5V-10.5M10.5,0H-10.5" style="opacity: 1; stroke-width: 2px; fill: rgb(128, 130, 133); fill-opacity: 1; stroke: rgb(20, 75, 57); stroke-opacity: 1;"/><path class="point" transform="translate(72.13,135.5)" d="M0,10.5V-10.5M10.5,0H-10.5" style="opacity: 1; stroke-width: 2px; fill: rgb(128, 130, 133); fill-opacity: 1; stroke: rgb(20, 75, 57); stroke-opacity: 1;"/><path class="point" transform="translate(110.43,135.5)" d="M0,10.5V-10.5M10.5,0H-10.5" style="opacity: 1; stroke-width: 2px; fill: rgb(128, 130, 133); fill-opacity: 1; stroke: rgb(20, 75, 57); stroke-opacity: 1;"/><path class="point" transform="translate(187.04,135.5)" d="M0,10.5V-10.5M10.5,0H-10.5" style="opacity: 1; stroke-width: 2px; fill: rgb(128, 130, 133); fill-opacity: 1; stroke: rgb(20, 75, 57); stroke-opacity: 1;"/><path class="point" transform="translate(340.26,135.5)" d="M0,10.5V-10.5M10.5,0H-10.5" style="opacity: 1; stroke-width: 2px; fill: rgb(128, 130, 133); fill-opacity: 1; stroke: rgb(20, 75, 57); stroke-opacity: 1;"/><path class="point" transform="translate(378.57,135.5)" d="M0,10.5V-10.5M10.5,0H-10.5" style="opacity: 1; stroke-width: 2px; fill: rgb(128, 130, 133); fill-opacity: 1; stroke: rgb(20, 75, 57); stroke-opacity: 1;"/><path class="point" transform="translate(225.35,135.5)" d="M0,10.5V-10.5M10.5,0H-10.5" style="opacity: 1; stroke-width: 2px; fill: rgb(128, 130, 133); fill-opacity: 1; stroke: rgb(20, 75, 57); stroke-opacity: 1;"/><path class="point" transform="translate(33.83,135.5)" d="M0,10.5V-10.5M10.5,0H-10.5" style="opacity: 1; stroke-width: 2px; fill: rgb(128, 130, 133); fill-opacity: 1; stroke: rgb(20, 75, 57); stroke-opacity: 1;"/><path class="point" transform="translate(148.74,135.5)" d="M0,10.5V-10.5M10.5,0H-10.5" style="opacity: 1; stroke-width: 2px; fill: rgb(128, 130, 133); fill-opacity: 1; stroke: rgb(20, 75, 57); stroke-opacity: 1;"/><path class="point" transform="translate(72.13,60.45)" d="M0,10.5V-10.5M10.5,0H-10.5" style="opacity: 1; stroke-width: 2px; fill: rgb(128, 130, 133); fill-opacity: 1; stroke: rgb(20, 75, 57); stroke-opacity: 1;"/><path class="point" transform="translate(110.43,60.45)" d="M0,10.5V-10.5M10.5,0H-10.5" style="opacity: 1; stroke-width: 2px; fill: rgb(128, 130, 133); fill-opacity: 1; stroke: rgb(20, 75, 57); stroke-opacity: 1;"/><path class="point" transform="translate(187.04,60.45)" d="M0,10.5V-10.5M10.5,0H-10.5" style="opacity: 1; stroke-width: 2px; fill: rgb(128, 130, 133); fill-opacity: 1; stroke: rgb(20, 75, 57); stroke-opacity: 1;"/><path class="point" transform="translate(225.35,60.45)" d="M0,10.5V-10.5M10.5,0H-10.5" style="opacity: 1; stroke-width: 2px; fill: rgb(128, 130, 133); fill-opacity: 1; stroke: rgb(20, 75, 57); stroke-opacity: 1;"/><path class="point" transform="translate(33.83,60.45)" d="M0,10.5V-10.5M10.5,0H-10.5" style="opacity: 1; stroke-width: 2px; fill: rgb(128, 130, 133); fill-opacity: 1; stroke: rgb(20, 75, 57); stroke-opacity: 1;"/><path class="point" transform="translate(148.74,60.45)" d="M0,10.5V-10.5M10.5,0H-10.5" style="opacity: 1; stroke-width: 2px; fill: rgb(128, 130, 133); fill-opacity: 1; stroke: rgb(20, 75, 57); stroke-opacity: 1;"/><path class="point" transform="translate(263.65,116.74)" d="M0,10.5V-10.5M10.5,0H-10.5" style="opacity: 1; stroke-width: 2px; fill: rgb(128, 130, 133); fill-opacity: 1; stroke: rgb(20, 75, 57); stroke-opacity: 1;"/><path class="point" transform="translate(72.13,116.74)" d="M0,10.5V-10.5M10.5,0H-10.5" style="opacity: 1; stroke-width: 2px; fill: rgb(128, 130, 133); fill-opacity: 1; stroke: rgb(20, 75, 57); stroke-opacity: 1;"/><path class="point" transform="translate(110.43,116.74)" d="M0,10.5V-10.5M10.5,0H-10.5" style="opacity: 1; stroke-width: 2px; fill: rgb(128, 130, 133); fill-opacity: 1; stroke: rgb(20, 75, 57); stroke-opacity: 1;"/><path class="point" transform="translate(340.26,116.74)" d="M0,10.5V-10.5M10.5,0H-10.5" style="opacity: 1; stroke-width: 2px; fill: rgb(128, 130, 133); fill-opacity: 1; stroke: rgb(20, 75, 57); stroke-opacity: 1;"/><path class="point" transform="translate(301.96,116.74)" d="M0,10.5V-10.5M10.5,0H-10.5" style="opacity: 1; stroke-width: 2px; fill: rgb(128, 130, 133); fill-opacity: 1; stroke: rgb(20, 75, 57); stroke-opacity: 1;"/><path class="point" transform="translate(225.35,116.74)" d="M0,10.5V-10.5M10.5,0H-10.5" style="opacity: 1; stroke-width: 2px; fill: rgb(128, 130, 133); fill-opacity: 1; stroke: rgb(20, 75, 57); stroke-opacity: 1;"/><path class="point" transform="translate(455.18,116.74)" d="M0,10.5V-10.5M10.5,0H-10.5" style="opacity: 1; stroke-width: 2px; fill: rgb(128, 130, 133); fill-opacity: 1; stroke: rgb(20, 75, 57); stroke-opacity: 1;"/><path class="point" transform="translate(33.83,116.74)" d="M0,10.5V-10.5M10.5,0H-10.5" style="opacity: 1; stroke-width: 2px; fill: rgb(128, 130, 133); fill-opacity: 1; stroke: rgb(20, 75, 57); stroke-opacity: 1;"/><path class="point" transform="translate(148.74,116.74)" d="M0,10.5V-10.5M10.5,0H-10.5" style="opacity: 1; stroke-width: 2px; fill: rgb(128, 130, 133); fill-opacity: 1; stroke: rgb(20, 75, 57); stroke-opacity: 1;"/><path class="point" transform="translate(263.65,97.98)" d="M0,10.5V-10.5M10.5,0H-10.5" style="opacity: 1; stroke-width: 2px; fill: rgb(128, 130, 133); fill-opacity: 1; stroke: rgb(20, 75, 57); stroke-opacity: 1;"/><path class="point" transform="translate(72.13,97.98)" d="M0,10.5V-10.5M10.5,0H-10.5" style="opacity: 1; stroke-width: 2px; fill: rgb(128, 130, 133); fill-opacity: 1; stroke: rgb(20, 75, 57); stroke-opacity: 1;"/><path class="point" transform="translate(110.43,97.98)" d="M0,10.5V-10.5M10.5,0H-10.5" style="opacity: 1; stroke-width: 2px; fill: rgb(128, 130, 133); fill-opacity: 1; stroke: rgb(20, 75, 57); stroke-opacity: 1;"/><path class="point" transform="translate(187.04,97.98)" d="M0,10.5V-10.5M10.5,0H-10.5" style="opacity: 1; stroke-width: 2px; fill: rgb(128, 130, 133); fill-opacity: 1; stroke: rgb(20, 75, 57); stroke-opacity: 1;"/><path class="point" transform="translate(301.96,97.98)" d="M0,10.5V-10.5M10.5,0H-10.5" style="opacity: 1; stroke-width: 2px; fill: rgb(128, 130, 133); fill-opacity: 1; stroke: rgb(20, 75, 57); stroke-opacity: 1;"/><path class="point" transform="translate(225.35,97.98)" d="M0,10.5V-10.5M10.5,0H-10.5" style="opacity: 1; stroke-width: 2px; fill: rgb(128, 130, 133); fill-opacity: 1; stroke: rgb(20, 75, 57); stroke-opacity: 1;"/><path class="point" transform="translate(33.83,97.98)" d="M0,10.5V-10.5M10.5,0H-10.5" style="opacity: 1; stroke-width: 2px; fill: rgb(128, 130, 133); fill-opacity: 1; stroke: rgb(20, 75, 57); stroke-opacity: 1;"/><path class="point" transform="translate(148.74,97.98)" d="M0,10.5V-10.5M10.5,0H-10.5" style="opacity: 1; stroke-width: 2px; fill: rgb(128, 130, 133); fill-opacity: 1; stroke: rgb(20, 75, 57); stroke-opacity: 1;"/><path class="point" transform="translate(33.83,22.93)" d="M0,10.5V-10.5M10.5,0H-10.5" style="opacity: 1; stroke-width: 2px; fill: rgb(128, 130, 133); fill-opacity: 1; stroke: rgb(20, 75, 57); stroke-opacity: 1;"/></g><g class="text"/></g></g></g><g class="overplot"/><path class="xlines-above crisp" d="M129,398H622M129,125H622" style="fill: none; stroke-width: 2px; stroke: rgb(0, 0, 0); stroke-opacity: 1;"/><path class="ylines-above crisp" d="M130,126V397M621,126V397" style="fill: none; stroke-width: 2px; stroke: rgb(0, 0, 0); stroke-opacity: 1;"/><g class="overlines-above"/><g class="xaxislayer-above"><g class="xtick"><text text-anchor="start" x="0" y="415.8" transform="translate(164.82999999999998,0) rotate(30,0,408.8)" style="font-family: Arial; font-size: 14px; fill: rgb(42, 63, 95); fill-opacity: 1; white-space: pre; opacity: 1;">turquoise</text></g><g class="xtick"><text text-anchor="start" x="0" y="415.8" transform="translate(203.13,0) rotate(30,0,408.8)" style="font-family: Arial; font-size: 14px; fill: rgb(42, 63, 95); fill-opacity: 1; white-space: pre; opacity: 1;">blue</text></g><g class="xtick"><text text-anchor="start" x="0" y="415.8" transform="translate(241.43,0) rotate(30,0,408.8)" style="font-family: Arial; font-size: 14px; fill: rgb(42, 63, 95); fill-opacity: 1; white-space: pre; opacity: 1;">brown</text></g><g class="xtick"><text text-anchor="start" x="0" y="415.8" transform="translate(279.74,0) rotate(30,0,408.8)" style="font-family: Arial; font-size: 14px; fill: rgb(42, 63, 95); fill-opacity: 1; white-space: pre; opacity: 1;">yellow</text></g><g class="xtick"><text text-anchor="start" x="0" y="415.8" transform="translate(318.03999999999996,0) rotate(30,0,408.8)" style="font-family: Arial; font-size: 14px; fill: rgb(42, 63, 95); fill-opacity: 1; white-space: pre; opacity: 1;">green</text></g><g class="xtick"><text text-anchor="start" x="0" y="415.8" transform="translate(356.35,0) rotate(30,0,408.8)" style="font-family: Arial; font-size: 14px; fill: rgb(42, 63, 95); fill-opacity: 1; white-space: pre; opacity: 1;">red</text></g><g class="xtick"><text text-anchor="start" x="0" y="415.8" transform="translate(394.65,0) rotate(30,0,408.8)" style="font-family: Arial; font-size: 14px; fill: rgb(42, 63, 95); fill-opacity: 1; white-space: pre; opacity: 1;">black</text></g><g class="xtick"><text text-anchor="start" x="0" y="415.8" transform="translate(432.96,0) rotate(30,0,408.8)" style="font-family: Arial; font-size: 14px; fill: rgb(42, 63, 95); fill-opacity: 1; white-space: pre; opacity: 1;">pink</text></g><g class="xtick"><text text-anchor="start" x="0" y="415.8" transform="translate(471.26,0) rotate(30,0,408.8)" style="font-family: Arial; font-size: 14px; fill: rgb(42, 63, 95); fill-opacity: 1; white-space: pre; opacity: 1;">magenta</text></g><g class="xtick"><text text-anchor="start" x="0" y="415.8" transform="translate(509.57,0) rotate(30,0,408.8)" style="font-family: Arial; font-size: 14px; fill: rgb(42, 63, 95); fill-opacity: 1; white-space: pre; opacity: 1;">purple</text></g><g class="xtick"><text text-anchor="start" x="0" y="415.8" transform="translate(547.87,0) rotate(30,0,408.8)" style="font-family: Arial; font-size: 14px; fill: rgb(42, 63, 95); fill-opacity: 1; white-space: pre; opacity: 1;">greenyellow</text></g><g class="xtick"><text text-anchor="start" x="0" y="415.8" transform="translate(586.1800000000001,0) rotate(30,0,408.8)" style="font-family: Arial; font-size: 14px; fill: rgb(42, 63, 95); fill-opacity: 1; white-space: pre; opacity: 1;">tan</text></g></g><g class="yaxislayer-above"><g class="ytick"><text text-anchor="end" x="126.2" y="4.8999999999999995" transform="translate(0,374.07)" style="font-family: Arial; font-size: 14px; fill: rgb(42, 63, 95); fill-opacity: 1; white-space: pre; opacity: 1;">turquoise</text></g><g class="ytick"><text text-anchor="end" x="126.2" y="4.8999999999999995" transform="translate(0,355.31)" style="font-family: Arial; font-size: 14px; fill: rgb(42, 63, 95); fill-opacity: 1; white-space: pre; opacity: 1;">blue</text></g><g class="ytick"><text text-anchor="end" x="126.2" y="4.8999999999999995" transform="translate(0,336.55)" style="font-family: Arial; font-size: 14px; fill: rgb(42, 63, 95); fill-opacity: 1; white-space: pre; opacity: 1;">brown</text></g><g class="ytick"><text text-anchor="end" x="126.2" y="4.8999999999999995" transform="translate(0,317.78999999999996)" style="font-family: Arial; font-size: 14px; fill: rgb(42, 63, 95); fill-opacity: 1; white-space: pre; opacity: 1;">yellow</text></g><g class="ytick"><text text-anchor="end" x="126.2" y="4.8999999999999995" transform="translate(0,299.02)" style="font-family: Arial; font-size: 14px; fill: rgb(42, 63, 95); fill-opacity: 1; white-space: pre; opacity: 1;">green</text></g><g class="ytick"><text text-anchor="end" x="126.2" y="4.8999999999999995" transform="translate(0,280.26)" style="font-family: Arial; font-size: 14px; fill: rgb(42, 63, 95); fill-opacity: 1; white-space: pre; opacity: 1;">red</text></g><g class="ytick"><text text-anchor="end" x="126.2" y="4.8999999999999995" transform="translate(0,261.5)" style="font-family: Arial; font-size: 14px; fill: rgb(42, 63, 95); fill-opacity: 1; white-space: pre; opacity: 1;">black</text></g><g class="ytick"><text text-anchor="end" x="126.2" y="4.8999999999999995" transform="translate(0,242.74)" style="font-family: Arial; font-size: 14px; fill: rgb(42, 63, 95); fill-opacity: 1; white-space: pre; opacity: 1;">pink</text></g><g class="ytick"><text text-anchor="end" x="126.2" y="4.8999999999999995" transform="translate(0,223.98000000000002)" style="font-family: Arial; font-size: 14px; fill: rgb(42, 63, 95); fill-opacity: 1; white-space: pre; opacity: 1;">magenta</text></g><g class="ytick"><text text-anchor="end" x="126.2" y="4.8999999999999995" transform="translate(0,205.20999999999998)" style="font-family: Arial; font-size: 14px; fill: rgb(42, 63, 95); fill-opacity: 1; white-space: pre; opacity: 1;">purple</text></g><g class="ytick"><text text-anchor="end" x="126.2" y="4.8999999999999995" transform="translate(0,186.45)" style="font-family: Arial; font-size: 14px; fill: rgb(42, 63, 95); fill-opacity: 1; white-space: pre; opacity: 1;">greenyellow</text></g><g class="ytick"><text text-anchor="end" x="126.2" y="4.8999999999999995" transform="translate(0,167.69)" style="font-family: Arial; font-size: 14px; fill: rgb(42, 63, 95); fill-opacity: 1; white-space: pre; opacity: 1;">tan</text></g><g class="ytick"><text text-anchor="end" x="126.2" y="4.8999999999999995" transform="translate(0,148.93)" style="font-family: Arial; font-size: 14px; fill: rgb(42, 63, 95); fill-opacity: 1; white-space: pre; opacity: 1;">grey</text></g></g><g class="overaxes-above"/></g></g><g class="polarlayer"/><g class="smithlayer"/><g class="ternarylayer"/><g class="geolayer"/><g class="funnelarealayer"/><g class="pielayer"/><g class="iciclelayer"/><g class="treemaplayer"/><g class="sunburstlayer"/><g class="glimages"/><defs id="topdefs-758c77"><g class="clips"/><clipPath id="legend758c77"><rect width="87" height="105" x="2" y="2"/></clipPath></defs><g class="layer-above"><g class="imagelayer"/><g class="shapelayer"/></g><g class="infolayer"><g class="legend" pointer-events="all" transform="translate(529,11.579999999999998)"><rect class="bg" shape-rendering="crispEdges" style="stroke: rgb(0, 0, 0); stroke-opacity: 1; fill: rgb(0, 0, 0); fill-opacity: 0; stroke-width: 2px;" width="89" height="107" x="1" y="1"/><g class="scrollbox" transform="" clip-path="url(#legend758c77)"><text class="legendtitletext" text-anchor="start" x="4" y="20.2" style="font-family: 'Times New Roman'; font-size: 14px; fill: rgb(42, 63, 95); fill-opacity: 1; white-space: pre;">Enrichment</text><g class="groups" transform=""><g class="traces" transform="translate(2,34.7)" style="opacity: 1;"><text class="legendtext" text-anchor="start" x="40" y="4.680000000000001" style="font-family: Arial; font-size: 12px; fill: rgb(42, 63, 95); fill-opacity: 1; white-space: pre;">***</text><g class="layers" style="opacity: 1;"><g class="legendfill"/><g class="legendlines"/><g class="legendsymbols"><g class="legendpoints"><path class="scatterpts" transform="translate(20,0)" d="M7.5,0A7.5,7.5 0 1,1 0,-7.5A7.5,7.5 0 0,1 7.5,0ZM0,0.5L0.5,0L0,-0.5L-0.5,0Z" style="opacity: 1; stroke-width: 2px; fill: rgb(136, 196, 8); fill-opacity: 1; stroke: rgb(20, 75, 57); stroke-opacity: 1;"/></g></g></g><rect class="legendtoggle" x="0" y="-9.5" width="58" height="19" style="fill: rgb(0, 0, 0); fill-opacity: 0;"/></g></g><g class="groups" transform=""><g class="traces" transform="translate(2,53.7)" style="opacity: 1;"><text class="legendtext" text-anchor="start" x="40" y="4.680000000000001" style="font-family: Arial; font-size: 12px; fill: rgb(42, 63, 95); fill-opacity: 1; white-space: pre;">**</text><g class="layers" style="opacity: 1;"><g class="legendfill"/><g class="legendlines"/><g class="legendsymbols"><g class="legendpoints"><path class="scatterpts" transform="translate(20,0)" d="M7.5,0A7.5,7.5 0 1,1 0,-7.5A7.5,7.5 0 0,1 7.5,0ZM0,0.5L0.5,0L0,-0.5L-0.5,0Z" style="opacity: 1; stroke-width: 2px; fill: rgb(166, 147, 99); fill-opacity: 1; stroke: rgb(20, 75, 57); stroke-opacity: 1;"/></g></g></g><rect class="legendtoggle" x="0" y="-9.5" width="58" height="19" style="fill: rgb(0, 0, 0); fill-opacity: 0;"/></g></g><g class="groups" transform=""><g class="traces" transform="translate(2,72.7)" style="opacity: 1;"><text class="legendtext" text-anchor="start" x="40" y="4.680000000000001" style="font-family: Arial; font-size: 12px; fill: rgb(42, 63, 95); fill-opacity: 1; white-space: pre;">*</text><g class="layers" style="opacity: 1;"><g class="legendfill"/><g class="legendlines"/><g class="legendsymbols"><g class="legendpoints"><path class="scatterpts" transform="translate(20,0)" d="M7.5,0A7.5,7.5 0 1,1 0,-7.5A7.5,7.5 0 0,1 7.5,0ZM0,0.5L0.5,0L0,-0.5L-0.5,0Z" style="opacity: 1; stroke-width: 2px; fill: rgb(255, 214, 2); fill-opacity: 1; stroke: rgb(20, 75, 57); stroke-opacity: 1;"/></g></g></g><rect class="legendtoggle" x="0" y="-9.5" width="58" height="19" style="fill: rgb(0, 0, 0); fill-opacity: 0;"/></g></g><g class="groups" transform=""><g class="traces" transform="translate(2,91.7)" style="opacity: 1;"><text class="legendtext" text-anchor="start" x="40" y="4.680000000000001" style="font-family: Arial; font-size: 12px; fill: rgb(42, 63, 95); fill-opacity: 1; white-space: pre;">NE</text><g class="layers" style="opacity: 1;"><g class="legendfill"/><g class="legendlines"/><g class="legendsymbols"><g class="legendpoints"><path class="scatterpts" transform="translate(20,0)" d="M0,10.5V-10.5M10.5,0H-10.5" style="opacity: 1; stroke-width: 2px; fill: rgb(128, 130, 133); fill-opacity: 1; stroke: rgb(20, 75, 57); stroke-opacity: 1;"/></g></g></g><rect class="legendtoggle" x="0" y="-9.5" width="58" height="19" style="fill: rgb(0, 0, 0); fill-opacity: 0;"/></g></g></g><rect class="scrollbar" rx="20" ry="3" width="0" height="0" style="fill: rgb(128, 139, 164); fill-opacity: 1;" x="0" y="0"/></g><g class="g-gtitle"><text class="gtitle" x="35" y="63" text-anchor="start" dy="0em" style="font-family: Arial; font-size: 20px; fill: rgb(42, 63, 95); opacity: 1; font-weight: normal; white-space: pre;">wk-Shell Enrichment</text></g><g class="g-xtitle"><text class="xtitle" x="375.5" y="487.870703125" text-anchor="middle" style="font-family: Arial; font-size: 17px; fill: rgb(42, 63, 95); opacity: 1; font-weight: normal; white-space: pre;">pH</text></g><g class="g-ytitle" transform="translate(3.712890625,0)"><text class="ytitle" transform="rotate(-90,12.287499999999994,261.5)" x="12.287499999999994" y="261.5" text-anchor="middle" style="font-family: Arial; font-size: 17px; fill: rgb(42, 63, 95); opacity: 1; font-weight: normal; white-space: pre;">Sulfur</text></g></g></svg>